<svg xmlns="http://www.w3.org/2000/svg" viewBox="0 0 1000 1000">
  <defs>
    <style>
      .cls-1 {
        stroke: #000;
        stroke-miterlimit: 10;
        stroke-width: 44px;
      }

      .cls-2 {
        fill: none;
      }
    </style>
  </defs>
  <title>favicon_1</title>
  <g id="Layer_2" data-name="Layer 2">
    <g id="Layer_1-2" data-name="Layer 1">
      <path class="cls-1" d="M562.73,164q-49.22,0-87.7-14.36t-76.43-28.76q-37.94-14.34-88.25-14.36-34.88,0-51.26,17.95t-15.4,49.76q1,30.81,21,49.26t54.89,25.63l-3.09,20.54q-40-7.14-75.39-33.35t-37.49-85.66q-2.07-54.35,29.76-90.29t89.25-35.9q42.08,0,74.39,16.45a412.12,412.12,0,0,1,61.57,38.45,421.33,421.33,0,0,0,61,38.49q31.81,16.41,72.84,16.41,52.28,0,91.79-12.82t89.79-33.35q21.54-32.81,42-50.26t35.94-4.09c8.18,6.8,7.85,16.07-1,27.68S819.54,85.74,783.3,99.39Q696.08,157.87,639.66,253.3t-87.2,214.39L488.89,716q-17.47,69.75-49.76,128.74t-80,94.88q-47.71,35.88-112.33,35.9-45.15,0-74.39-13.82T142.12,919.1q-1.06-22.6,14.86-41.58t41.58-19c12.31,0,22.37,3.92,30.26,11.77s12.11,17.62,12.82,29.26a43.26,43.26,0,0,1-11.31,32.31,91.19,91.19,0,0,1-29.72,22A141.78,141.78,0,0,0,217,957.55a116.4,116.4,0,0,0,19.49,1.54q42.08,0,69.75-27.68T352.43,857q18.47-46.71,33.35-104.65T416,633.87l30.76-120Q473.48,411.3,520.65,339A644.85,644.85,0,0,1,630.94,210.22,1587.59,1587.59,0,0,1,765.85,102.48q-24.61,12.34-50.26,23.59t-51.3,20A357,357,0,0,1,613,159.41,282.18,282.18,0,0,1,562.73,164ZM671.47,407.16l-3.09,20.54H339.11l3-20.54Z"/>
      <rect class="cls-2" width="1000" height="1000"/>
    </g>
  </g>
</svg>
