<svg xmlns="http://www.w3.org/2000/svg" viewBox="0 0 1000 1000">
  <defs>
    <style>
      .cls-1 {
        fill: #176ae6;
      }

      .cls-2 {
        fill: #fff;
      }
    </style>
  </defs>
  <title>facebook_cir</title>
  <g id="Layer_2" data-name="Layer 2">
    <g id="facebook_circle" data-name="facebook circle">
      <g>
        <path class="cls-1" d="M500,0C223.86,0,0,223.86,0,500s223.86,500,500,500,500-223.86,500-500S776.14,0,500,0ZM674.19,282.28l-72.7,0c-49.11,0-58.3,24.36-58.3,58.6v82.92H669L651.27,532.53H543.19v305H434.66v-305H325.81V423.78H434.69V323.39c0-101.25,59.78-160.89,150.09-160.89,43.27,0,89.42,10.11,89.42,10.11Z"/>
        <path class="cls-2" d="M434.69,323.39V423.78H325.81V532.53H434.66v305H543.19v-305H651.27L669,423.78H543.19V340.85c0-34.24,9.18-58.6,58.3-58.6l72.7,0V172.61S628,162.5,584.77,162.5C494.47,162.5,434.69,222.14,434.69,323.39Z"/>
      </g>
    </g>
  </g>
</svg>
