<svg xmlns="http://www.w3.org/2000/svg" xmlns:xlink="http://www.w3.org/1999/xlink" viewBox="0 0 1000 1000">
  <defs>
    <style>
      .cls-1 {
        fill: url(#linear-gradient);
      }

      .cls-2 {
        fill: url(#linear-gradient-2);
      }

      .cls-3 {
        fill: #fff;
      }
    </style>
    <linearGradient id="linear-gradient" x1="-493.42" y1="1437.43" x2="305.42" y2="296.57" gradientTransform="translate(594 -367)" gradientUnits="userSpaceOnUse">
      <stop offset="0" stop-color="#ffb900"/>
      <stop offset="1" stop-color="#9100eb"/>
    </linearGradient>
    <linearGradient id="linear-gradient-2" x1="-493.42" y1="1437.43" x2="305.42" y2="296.57" xlink:href="#linear-gradient"/>
  </defs>
  <title>instagram_cir</title>
  <g id="Layer_2" data-name="Layer 2">
    <g id="instagram_circle" data-name="instagram circle">
      <g>
        <path class="cls-1" d="M500,388.58A111.42,111.42,0,1,0,611.42,500,111.55,111.55,0,0,0,500,388.58Z"/>
        <path class="cls-2" d="M653.2,221.46H346.8A125.48,125.48,0,0,0,221.46,346.8V653.2A125.49,125.49,0,0,0,346.8,778.54H653.2A125.48,125.48,0,0,0,778.54,653.2V346.8A125.48,125.48,0,0,0,653.2,221.46ZM500,667.13c-92.16,0-167.12-75-167.12-167.12s75-167.12,167.13-167.12,167.13,75,167.13,167.13S592.16,667.13,500,667.13Zm177.57-306.4a38.3,38.3,0,1,1,38.3-38.3A38.3,38.3,0,0,1,677.57,360.73Z"/>
        <path class="cls-1" d="M500,0C223.86,0,0,223.86,0,500s223.86,500,500,500,500-223.86,500-500S776.14,0,500,0ZM834.25,653.2C834.25,753,753,834.25,653.2,834.25H346.8C247,834.25,165.75,753,165.75,653.2V346.8C165.75,247,247,165.75,346.8,165.75H653.2C753,165.75,834.25,247,834.25,346.8Z"/>
        <path class="cls-3" d="M653.2,165.75H346.8C247,165.75,165.75,247,165.75,346.8V653.2C165.75,753,247,834.25,346.8,834.25H653.2C753,834.25,834.25,753,834.25,653.2V346.8C834.25,247,753,165.75,653.2,165.75ZM778.54,653.2A125.48,125.48,0,0,1,653.2,778.54H346.8A125.49,125.49,0,0,1,221.46,653.2V346.8A125.48,125.48,0,0,1,346.8,221.46H653.2A125.48,125.48,0,0,1,778.54,346.8Z"/>
        <path class="cls-3" d="M500,332.88c-92.16,0-167.12,75-167.12,167.13s75,167.13,167.13,167.13,167.13-75,167.13-167.12S592.16,332.88,500,332.88Zm0,278.54A111.42,111.42,0,1,1,611.42,500,111.55,111.55,0,0,1,500,611.42Z"/>
        <circle class="cls-3" cx="677.57" cy="322.43" r="38.3"/>
      </g>
    </g>
  </g>
</svg>
