<svg xmlns="http://www.w3.org/2000/svg" viewBox="0 0 1000 1000">
  <defs>
    <style>
      .cls-1 {
        fill: #007bb5;
      }

      .cls-2 {
        fill: #fff;
      }

      .cls-3 {
        fill: none;
        stroke: #fff;
        stroke-linecap: round;
        stroke-linejoin: round;
        stroke-width: 0;
      }
    </style>
  </defs>
  <title>linkedin_cir</title>
  <g id="Layer_2" data-name="Layer 2">
    <g id="linkedin_circle" data-name="linkedin circle">
      <g>
        <path class="cls-1" d="M500,0C223.86,0,0,223.86,0,500s223.86,500,500,500,500-223.86,500-500S776.14,0,500,0ZM311,838.64H170.88V385.76H311ZM241.6,325.92c-44.88,0-81.6-36.72-81.6-83s36.72-83,81.6-83,81.6,36.72,81.6,83C323.2,287.84,286.48,325.92,241.6,325.92ZM840,838.64H699.92V618.32c0-51.68-1.36-121-72.08-121-72.08,0-84.32,57.12-84.32,117V840H402.08V385.76H536.72V447h1.36c19-36.72,65.28-73.44,133.28-73.44,142.8,0,168.64,93.84,168.64,216.24Z"/>
        <path class="cls-2" d="M241.6,160c-44.88,0-81.6,36.72-81.6,83s36.72,83,81.6,83,81.6-38.08,81.6-83C323.2,196.72,286.48,160,241.6,160Z"/>
        <rect class="cls-2" x="170.88" y="385.76" width="140.08" height="452.88"/>
        <line class="cls-3" x1="400.72" y1="385.76" x2="402.08" y2="385.76"/>
        <path class="cls-2" d="M671.36,373.52c-68,0-114.24,36.72-133.28,73.44h-1.36v-61.2H402.08V840H543.52V614.24c0-59.84,12.24-117,84.32-117,70.72,0,72.08,69.36,72.08,121V838.64H840V589.76C840,467.36,814.16,373.52,671.36,373.52Z"/>
      </g>
    </g>
  </g>
</svg>
