<svg xmlns="http://www.w3.org/2000/svg" viewBox="0 0 1000 1000">
  <defs>
    <style>
      .cls-1 {
        fill: #1da1f2;
      }

      .cls-2 {
        fill: #fff;
      }

      .cls-3 {
        fill: none;
      }
    </style>
  </defs>
  <title>twitter</title>
  <g id="Layer_2" data-name="Layer 2">
    <g id="twitter">
      <g id="Dark_Blue" data-name="Dark Blue">
        <rect class="cls-1" width="1000" height="1000"/>
      </g>
      <path class="cls-2" d="M373.39,771.8c252.45,0,390.54-209.16,390.54-390.54,0-5.94,0-11.85-.4-17.74a279.27,279.27,0,0,0,68.48-71,274,274,0,0,1-78.83,21.6,137.73,137.73,0,0,0,60.34-75.92,275.07,275.07,0,0,1-87.16,33.32A137.39,137.39,0,0,0,492.44,396.65,389.68,389.68,0,0,1,209.56,253.24a137.36,137.36,0,0,0,42.49,183.23,136.24,136.24,0,0,1-62.3-17.18V421A137.31,137.31,0,0,0,299.88,555.58a137,137,0,0,1-62,2.35,137.41,137.41,0,0,0,128.23,95.32,275.41,275.41,0,0,1-170.46,58.87,279.41,279.41,0,0,1-32.67-2,388.58,388.58,0,0,0,210.39,61.55"/>
      <rect class="cls-3" width="1000" height="1000"/>
    </g>
  </g>
</svg>
