<svg xmlns="http://www.w3.org/2000/svg" viewBox="0 0 1000 1000">
  <defs>
    <style>
      .cls-1 {
        fill: #1da1f2;
      }

      .cls-2 {
        fill: #fff;
      }
    </style>
  </defs>
  <title>twitter_cir</title>
  <g id="Layer_2" data-name="Layer 2">
    <g id="twitter_circle" data-name="twitter circle">
      <g>
        <path class="cls-1" d="M500,0C223.86,0,0,223.86,0,500s223.86,500,500,500,500-223.86,500-500S776.14,0,500,0ZM763.52,363.52c.4,5.89.4,11.8.4,17.74,0,181.38-138.08,390.54-390.54,390.54v-.11A388.58,388.58,0,0,1,163,710.14a279.4,279.4,0,0,0,32.67,2,275.41,275.41,0,0,0,170.46-58.87A137.41,137.41,0,0,1,237.9,557.93a137,137,0,0,0,62-2.35A137.31,137.31,0,0,1,189.76,421v-1.74a136.24,136.24,0,0,0,62.3,17.18,137.36,137.36,0,0,1-42.49-183.23A389.68,389.68,0,0,0,492.44,396.65,137.39,137.39,0,0,1,726.35,271.47a275.07,275.07,0,0,0,87.16-33.32,137.73,137.73,0,0,1-60.34,75.92A274,274,0,0,0,832,292.47,279.27,279.27,0,0,1,763.52,363.52Z"/>
        <path class="cls-2" d="M813.51,238.15a275.07,275.07,0,0,1-87.16,33.32A137.39,137.39,0,0,0,492.44,396.65,389.68,389.68,0,0,1,209.56,253.24a137.36,137.36,0,0,0,42.49,183.23,136.24,136.24,0,0,1-62.3-17.18V421A137.31,137.31,0,0,0,299.88,555.58a137,137,0,0,1-62,2.35,137.41,137.41,0,0,0,128.23,95.32,275.41,275.41,0,0,1-170.46,58.87,279.4,279.4,0,0,1-32.67-2,388.58,388.58,0,0,0,210.39,61.55v.11c252.45,0,390.54-209.16,390.54-390.54,0-5.94,0-11.85-.4-17.74a279.27,279.27,0,0,0,68.48-71,274,274,0,0,1-78.83,21.6A137.73,137.73,0,0,0,813.51,238.15Z"/>
      </g>
    </g>
  </g>
</svg>
