<svg xmlns="http://www.w3.org/2000/svg" viewBox="0 0 1000 1000">
  <defs>
    <style>
      .cls-1 {
        fill: #000;
      }

      .cls-2 {
        fill: none;
      }
    </style>
  </defs>
  <title>whatsapp_min</title>
  <g id="Layer_2" data-name="Layer 2">
    <g id="whatsapp_minimal" data-name="whatsapp minimal">
      <path class="cls-1" d="M736.68,261.95A330.45,330.45,0,0,0,501.39,164.4C318.08,164.4,168.87,313.59,168.8,497a332,332,0,0,0,44.39,166.26L166,835.6l176.31-46.24a332.64,332.64,0,0,0,158.94,40.47h.15c183.3,0,332.51-149.22,332.59-332.6a330.76,330.76,0,0,0-97.31-235.29M501.4,773.66h-.12a276.09,276.09,0,0,1-140.71-38.53l-10.09-6L245.86,756.58l27.92-102-6.57-10.48A275.55,275.55,0,0,1,224.95,497C225,344.57,349,220.57,501.49,220.57A276.51,276.51,0,0,1,777.83,497.22c-.05,152.42-124.07,276.44-276.43,276.44M653,566.62c-8.32-4.16-49.16-24.26-56.79-27s-13.15-4.15-18.7,4.17-21.46,27-26.32,32.58-9.69,6.24-18,2.08-35.09-12.93-66.81-41.26c-24.71-22-41.39-49.26-46.24-57.57s-.52-12.82,3.64-17c3.75-3.72,8.31-9.7,12.47-14.56s5.53-8.32,8.31-13.86,1.39-10.4-.7-14.55-18.7-45.07-25.62-61.71c-6.75-16.2-13.61-14-18.7-14.26-4.85-.24-10.4-.3-15.93-.3s-14.55,2.08-22.16,10.4S332.4,382.2,332.4,423.11s29.78,80.42,33.94,86,58.59,89.49,142,125.49a482,482,0,0,0,47.38,17.51c19.9,6.33,38,5.43,52.34,3.29,16-2.37,49.17-20.09,56.12-39.51s6.91-36,4.83-39.51-7.62-5.55-15.94-9.71"/>
      <rect class="cls-2" width="1000" height="1000"/>
    </g>
  </g>
</svg>
