<svg xmlns="http://www.w3.org/2000/svg" viewBox="0 0 1000 1000">
  <defs>
    <style>
      .cls-1 {
        fill: #25d366;
      }

      .cls-2 {
        fill: #fff;
      }
    </style>
  </defs>
  <title>whatsapp_cir</title>
  <g id="Layer_2" data-name="Layer 2">
    <g id="whatsapp_circle" data-name="whatsapp circle">
      <g>
        <path class="cls-1" d="M500.49,221.57C348,221.57,224,345.57,223.95,498a275.55,275.55,0,0,0,42.26,147.11l6.57,10.48-27.92,102,104.62-27.44,10.09,6a276.09,276.09,0,0,0,140.71,38.53h.12c152.36,0,276.38-124,276.43-276.44A276.51,276.51,0,0,0,500.49,221.57ZM663.14,616.84C656.19,636.27,623,654,607,656.36c-14.33,2.14-32.44,3-52.34-3.29a482,482,0,0,1-47.38-17.51c-83.37-36-137.81-120-142-125.49s-33.94-45.07-33.94-86,21.48-61,29.09-69.33,16.62-10.4,22.16-10.4,11.08.06,15.93.3c5.09.25,11.94-1.94,18.7,14.26,6.91,16.63,23.54,57.54,25.62,61.71s3.46,9,.7,14.55-4.16,9-8.31,13.86-8.72,10.84-12.47,14.56c-4.15,4.14-8.49,8.63-3.64,17s21.53,35.56,46.24,57.57c31.72,28.33,58.51,37.1,66.81,41.26s13.16,3.46,18-2.08,20.77-24.26,26.32-32.58,11.07-6.95,18.7-4.17,48.46,22.89,56.79,27,13.85,6.24,15.94,9.71S670,597.43,663.14,616.84Z"/>
        <path class="cls-1" d="M500,0C223.86,0,0,223.86,0,500s223.86,500,500,500,500-223.86,500-500S776.14,0,500,0Zm.4,830.84h-.15a332.64,332.64,0,0,1-158.94-40.47L165,836.6l47.18-172.37A332,332,0,0,1,167.8,498c.07-183.38,149.29-332.57,332.6-332.57A332.65,332.65,0,0,1,833,498.23C832.91,681.62,683.71,830.84,500.4,830.84Z"/>
        <path class="cls-2" d="M500.39,165.4C317.08,165.4,167.87,314.59,167.8,498a332,332,0,0,0,44.39,166.26L165,836.6l176.31-46.24a332.64,332.64,0,0,0,158.94,40.47h.15c183.3,0,332.51-149.22,332.59-332.6A332.65,332.65,0,0,0,500.39,165.4Zm0,609.26h-.12a276.09,276.09,0,0,1-140.71-38.53l-10.09-6L244.86,757.58l27.92-102-6.57-10.48A275.55,275.55,0,0,1,223.95,498C224,345.57,348,221.57,500.49,221.57A276.51,276.51,0,0,1,776.83,498.22C776.78,650.64,652.76,774.66,500.4,774.66Z"/>
        <path class="cls-2" d="M652,567.62c-8.32-4.16-49.16-24.26-56.79-27s-13.15-4.15-18.7,4.17-21.46,27-26.32,32.58-9.69,6.24-18,2.08-35.09-12.93-66.81-41.26c-24.71-22-41.39-49.26-46.24-57.57s-.52-12.82,3.64-17c3.75-3.72,8.31-9.7,12.47-14.56s5.53-8.32,8.31-13.86,1.39-10.4-.7-14.55-18.7-45.07-25.62-61.71c-6.75-16.2-13.61-14-18.7-14.26-4.85-.24-10.4-.3-15.93-.3s-14.55,2.08-22.16,10.4S331.4,383.2,331.4,424.11s29.78,80.42,33.94,86,58.59,89.49,142,125.49a482,482,0,0,0,47.38,17.51c19.9,6.33,38,5.43,52.34,3.29,16-2.37,49.17-20.09,56.12-39.51s6.91-36,4.83-39.51S660.34,571.78,652,567.62Z"/>
      </g>
    </g>
  </g>
</svg>
