<svg xmlns="http://www.w3.org/2000/svg" viewBox="0 0 1000 1000">
  <defs>
    <style>
      .cls-1 {
        fill: red;
      }

      .cls-2 {
        fill: none;
      }
    </style>
  </defs>
  <title>youtube_min</title>
  <g id="Layer_2" data-name="Layer 2">
    <g id="youtube_minimal" data-name="youtube minimal">
      <g id="g4167">
        <path id="path4156" class="cls-1" d="M500.29,264.34s-210.94,0-263.88,13.76c-28.35,7.92-51.69,31.26-59.61,60C163,391.07,163,500.71,163,500.71s0,110.06,13.76,162.17a85.89,85.89,0,0,0,59.61,59.61c53.36,14.17,263.88,14.17,263.88,14.17s211.36,0,264.3-13.76c28.76-7.92,51.69-30.43,59.19-59.61C838,610.77,838,501.13,838,501.13s.42-110.06-14.17-163a83.33,83.33,0,0,0-59.19-59.19C711.65,264.34,500.29,264.34,500.29,264.34ZM433.17,399.41l175.51,101.3L433.17,601.59Z"/>
      </g>
      <rect class="cls-2" width="1000" height="1000"/>
    </g>
  </g>
</svg>
