<svg xmlns="http://www.w3.org/2000/svg" viewBox="0 0 1000 1000">
  <defs>
    <style>
      .cls-1 {
        fill: red;
      }

      .cls-2 {
        fill: #fff;
      }
    </style>
  </defs>
  <title>youtube_cir</title>
  <g id="Layer_2" data-name="Layer 2">
    <g id="youtube_circle" data-name="youtube circle">
      <g>
        <polygon class="cls-1" points="432.67 601.09 608.18 500.21 432.67 398.91 432.67 601.09"/>
        <path class="cls-1" d="M500,0C223.86,0,0,223.86,0,500s223.86,500,500,500,500-223.86,500-500S776.14,0,500,0ZM837.46,500.63s0,109.64-14.17,162.17c-7.5,29.18-30.43,51.69-59.19,59.61-52.94,13.76-264.3,13.76-264.3,13.76s-210.52,0-263.88-14.17a85.89,85.89,0,0,1-59.61-59.61c-13.76-52.11-13.76-162.17-13.76-162.17s0-109.64,13.76-162.58c7.92-28.76,31.26-52.11,59.61-60,52.94-13.76,263.88-13.76,263.88-13.76s211.36,0,264.3,14.59a83.33,83.33,0,0,1,59.19,59.19C837.88,390.57,837.46,500.63,837.46,500.63Z"/>
        <path class="cls-2" d="M764.09,278.43c-52.94-14.59-264.3-14.59-264.3-14.59s-210.94,0-263.88,13.76c-28.35,7.92-51.69,31.26-59.61,60-13.76,52.94-13.76,162.58-13.76,162.58s0,110.06,13.76,162.17A85.89,85.89,0,0,0,235.91,722c53.36,14.17,263.88,14.17,263.88,14.17s211.36,0,264.3-13.76c28.76-7.92,51.69-30.43,59.19-59.61,14.17-52.53,14.17-162.17,14.17-162.17s.42-110.06-14.17-163A83.33,83.33,0,0,0,764.09,278.43ZM432.67,601.09V398.91l175.51,101.3Z"/>
      </g>
    </g>
  </g>
</svg>
